<?xml version="1.0" encoding="utf-8"?>
<!-- Generator: Adobe Illustrator 16.0.0, SVG Export Plug-In . SVG Version: 6.00 Build 0)  -->
<!DOCTYPE svg PUBLIC "-//W3C//DTD SVG 1.1//EN" "http://www.w3.org/Graphics/SVG/1.1/DTD/svg11.dtd">
<svg version="1.1" id="Layer_1" xmlns="http://www.w3.org/2000/svg" xmlns:xlink="http://www.w3.org/1999/xlink" x="0px" y="0px"
	 width="159.998px" height="160.529px" viewBox="0.521 0.487 159.998 160.529" enable-background="new 0.521 0.487 159.998 160.529"
	 xml:space="preserve">
<g>
	<g>
		<path fill="#2C3E50" d="M80.533,160.494c-44.118,0-80.012-35.895-80.012-80.014S36.415,0.47,80.533,0.47
			s80.012,35.893,80.012,80.012S124.652,160.494,80.533,160.494z"/>
	</g>
	<g>
		<path fill="#FFFFFF" d="M19.47,38.562l-1.082,1.483L17.34,39.28l3.096-4.241l1.049,0.765l-1.101,1.507l4.474,3.264l-0.915,1.254
			L19.47,38.562z"/>
		<path fill="#FFFFFF" d="M24.118,30.731l1.911,1.803l1.745-1.854l-1.912-1.801l1.058-1.122l4.976,4.686l-1.058,1.122l-2.082-1.96
			l-1.744,1.854l2.081,1.96l-1.063,1.129l-4.975-4.688L24.118,30.731z"/>
		<path fill="#FFFFFF" d="M35.991,25.065l-1.939,1.604l1.033,1.251l2.167-1.789l0.809,0.978l-3.363,2.777l-4.354-5.271l3.254-2.687
			l0.808,0.979l-2.057,1.697l0.903,1.097l1.938-1.604L35.991,25.065z"/>
		<path fill="#FFFFFF" d="M41.479,16.65c0.396-0.312,1.016-0.723,1.733-1.121c0.889-0.489,1.583-0.699,2.196-0.599
			c0.512,0.088,0.938,0.397,1.242,0.947c0.422,0.764,0.169,1.587-0.242,2.058l0.015,0.026c0.511-0.062,0.963,0.21,1.417,0.677
			c0.561,0.572,1.179,1.25,1.421,1.417l-1.386,0.765c-0.19-0.113-0.604-0.522-1.188-1.161c-0.571-0.657-0.941-0.721-1.498-0.426
			l-0.407,0.228l1.3,2.353l-1.341,0.741L41.479,16.65z M44.243,18.484l0.532-0.294c0.676-0.374,0.889-0.931,0.6-1.455
			c-0.305-0.551-0.83-0.618-1.456-0.283c-0.329,0.181-0.5,0.311-0.588,0.383L44.243,18.484z"/>
		<path fill="#FFFFFF" d="M56.749,13.127c0.819,2.086,0.052,3.849-1.809,4.58c-1.89,0.742-3.553-0.249-4.267-2.062
			c-0.75-1.907-0.092-3.811,1.787-4.55C54.416,10.327,56.058,11.372,56.749,13.127z M52.184,15.02
			c0.489,1.247,1.42,1.896,2.383,1.518c0.974-0.384,1.166-1.527,0.681-2.766c-0.449-1.143-1.384-1.909-2.374-1.519
			C51.901,12.635,51.698,13.783,52.184,15.02z"/>
		<path fill="#FFFFFF" d="M66.153,13.983c-0.24,0.207-0.823,0.51-1.631,0.71c-2.293,0.572-3.83-0.56-4.302-2.447
			c-0.563-2.265,0.733-3.928,2.74-4.429c0.777-0.192,1.407-0.184,1.708-0.111l-0.008,1.267C64.324,8.92,63.872,8.909,63.34,9.04
			c-1.19,0.297-1.937,1.246-1.566,2.722c0.331,1.329,1.327,1.968,2.666,1.634c0.453-0.111,0.931-0.336,1.194-0.526L66.153,13.983z"
			/>
		<path fill="#FFFFFF" d="M68.77,6.763l1.521-0.187l0.368,3l0.029-0.003c0.119-0.28,0.25-0.542,0.372-0.804l1.266-2.443l1.882-0.23
			l-1.892,3.165l2.845,3.606l-1.792,0.22l-2.021-2.729l-0.496,0.786l0.271,2.215l-1.521,0.188L68.77,6.763z"/>
		<path fill="#FFFFFF" d="M82.29,9.843l-2.516,0.006l0.003,1.623l2.81-0.006l0.002,1.267l-4.359,0.012L78.213,5.91l4.22-0.012
			l0.002,1.27l-2.667,0.005l0.003,1.42l2.515-0.005L82.29,9.843z"/>
		<path fill="#FFFFFF" d="M88.09,7.594l-1.822-0.209l0.146-1.29l5.219,0.598l-0.147,1.289L89.632,7.77l-0.63,5.501l-1.542-0.177
			L88.09,7.594z"/>
		<path fill="#FFFFFF" d="M100.526,8.593l3.999,1.213l-0.367,1.214l-2.515-0.763l-0.454,1.495l2.35,0.713l-0.365,1.203l-2.349-0.712
			l-0.799,2.63l-1.484-0.451L100.526,8.593z"/>
		<path fill="#FFFFFF" d="M107.473,16.355l-1.142,1.419l-1.473-0.634l4.624-5.452l1.863,0.805l-0.758,7.115l-1.526-0.656l0.209-1.82
			L107.473,16.355z M109.523,15.979l0.184-1.5c0.048-0.421,0.137-0.935,0.205-1.348l-0.02-0.008
			c-0.254,0.333-0.553,0.768-0.812,1.087l-0.947,1.171L109.523,15.979z"/>
		<path fill="#FFFFFF" d="M117.766,23.413c-0.315-0.021-0.945-0.212-1.663-0.632c-2.04-1.193-2.349-3.077-1.365-4.76
			c1.179-2.014,3.271-2.294,5.056-1.25c0.69,0.404,1.136,0.853,1.3,1.112l-0.891,0.901c-0.205-0.273-0.521-0.6-0.993-0.875
			c-1.06-0.62-2.256-0.462-3.023,0.852c-0.69,1.182-0.427,2.335,0.766,3.032c0.401,0.233,0.899,0.409,1.224,0.458L117.766,23.413z"
			/>
		<path fill="#FFFFFF" d="M125.049,21.994l-1.463-1.11l0.785-1.035l4.187,3.178l-0.785,1.034l-1.487-1.128l-3.349,4.412
			l-1.235-0.938L125.049,21.994z"/>
		<path fill="#FFFFFF" d="M133.601,32.262c-1.563,1.605-3.485,1.629-4.917,0.235c-1.452-1.416-1.232-3.341,0.126-4.735
			c1.431-1.467,3.437-1.65,4.881-0.241C135.195,28.986,134.918,30.912,133.601,32.262z M130.001,28.88
			c-0.936,0.958-1.144,2.072-0.401,2.795c0.748,0.729,1.87,0.435,2.797-0.517c0.855-0.881,1.172-2.044,0.41-2.788
			C132.058,27.642,130.928,27.929,130.001,28.88z"/>
		<path fill="#FFFFFF" d="M138.731,33.195c0.371,0.343,0.876,0.887,1.386,1.531c0.627,0.797,0.946,1.45,0.943,2.071
			c-0.004,0.52-0.241,0.99-0.734,1.379c-0.687,0.54-1.539,0.423-2.07,0.092l-0.023,0.021c0.145,0.494-0.052,0.981-0.439,1.508
			c-0.475,0.645-1.044,1.364-1.169,1.63l-0.979-1.244c0.082-0.206,0.42-0.679,0.957-1.358c0.558-0.671,0.559-1.047,0.177-1.548
			l-0.288-0.365l-2.112,1.66l-0.946-1.202L138.731,33.195z M137.366,36.218l0.376,0.478c0.478,0.606,1.062,0.728,1.531,0.356
			c0.495-0.389,0.479-0.918,0.047-1.483c-0.231-0.294-0.387-0.442-0.472-0.519L137.366,36.218z"/>
		<path fill="#FFFFFF" d="M139.198,45.35l2.393-1.455l2.328-3.942l0.917,1.508l-1.041,1.452c-0.313,0.438-0.552,0.752-0.844,1.131
			l0.01,0.018c0.442-0.092,0.866-0.158,1.388-0.237l1.763-0.265l0.901,1.482l-4.577,0.146l-2.438,1.481L139.198,45.35z"/>
	</g>
	<g>
		<circle fill="#AAAAA2" cx="69.018" cy="113.251" r="11.834"/>
		<circle fill="#AAAAA2" cx="62.519" cy="102.508" r="9.29"/>
		<circle fill="#AAAAA2" cx="74.616" cy="101.875" r="5.917"/>
		<circle fill="#AAAAA2" cx="74.696" cy="92.839" r="4.536"/>
		<circle fill="#AAAAA2" cx="77.124" cy="88.57" r="2.536"/>
		<circle fill="#AAAAA2" cx="69.758" cy="95.952" r="5.283"/>
	</g>
	<g>
		<g>
			<g>
				<defs>
					<circle id="SVGID_1_" cx="80.533" cy="80.482" r="80.512"/>
				</defs>
				<clipPath id="SVGID_2_">
					<use xlink:href="#SVGID_1_"  overflow="visible"/>
				</clipPath>
				<g clip-path="url(#SVGID_2_)">
					<circle fill="#DEDED2" cx="104.423" cy="144.802" r="7.608"/>
					<circle fill="#DEDED2" cx="102.196" cy="135.869" r="3.592"/>
					<circle fill="#DEDED2" cx="36.546" cy="106.042" r="9.721"/>
					<circle fill="#DEDED2" cx="97.609" cy="131.503" r="5.494"/>
					<circle fill="#DEDED2" cx="84.579" cy="111.316" r="8.03"/>
					<circle fill="#DEDED2" cx="112.014" cy="155.687" r="13.947"/>
					<circle fill="#DEDED2" cx="52.414" cy="102.277" r="11.834"/>
					<circle fill="#DEDED2" cx="61.73" cy="111.942" r="7.607"/>
					<circle fill="#DEDED2" cx="88.72" cy="124.641" r="7.607"/>
					<circle fill="#DEDED2" cx="91.184" cy="116.999" r="5.072"/>
					<circle fill="#DEDED2" cx="73.732" cy="109.151" r="5.494"/>
					<circle fill="#DEDED2" cx="28.161" cy="108.029" r="6.577"/>
					<circle fill="#DEDED2" cx="14.736" cy="117.216" r="13.947"/>
					
						<ellipse transform="matrix(-0.9517 -0.3069 0.3069 -0.9517 59.7736 322.8383)" fill="#DEDED2" cx="55.27" cy="156.719" rx="50.289" ry="48.824"/>
					<g display="none">
						<path display="inline" fill="none" stroke="#ADADA8" stroke-width="3" stroke-miterlimit="10" d="M78.126,118.117
							c0,0-1.245-21.089,3.286-35.142"/>
						<path display="inline" fill="none" stroke="#ADADA8" stroke-width="3" stroke-miterlimit="10" d="M61.873,112.876
							c0,0,13.329-16.39,17.859-30.44"/>
						
							<line display="inline" fill="none" stroke="#ADADA8" stroke-width="3" stroke-miterlimit="10" x1="69.646" y1="114.938" x2="80.151" y2="82.356"/>
					</g>
				</g>
			</g>
		</g>
	</g>
	<g>
		<g>
			<path fill="#F4E635" d="M104.914,39.55c0,0-20.146,4.302-23.187,28.382c0,0,0.071,0.286-0.362,1.981
				c-0.436,1.693,0.222-0.011,0.222-0.011s-3.256-0.894-3.865-0.82c0,0,0.818-2.333-0.296-4.355c0,0-5.771,0.379-8.508,11.102
				l-0.094,0.485c0,0-0.581,3.063,2.026,1.321c0,0,4.148-3.384,4.884-5.015l4.677,0.376l-0.007,2.221c0,0-1.814-0.038-3.007,1.671
				c0,0,0.453,1.083,2.668,2.249l-0.762,3.349l1.604,0.885l2.227-2.511c2.117,1.336,3.28,1.188,3.28,1.188
				c0.885-1.886-0.055-3.441-0.055-3.441l1.921-1.113l2.66,3.861c-1.044,1.451-1.901,6.736-1.901,6.736
				c-0.207,3.129,2.152,1.103,2.152,1.103l0.379-0.333c7.92-7.726,5.363-12.915,5.363-12.915c-2.309,0.047-3.92,1.921-3.92,1.921
				c-0.242-0.563-2.854-2.995-2.854-2.995s-0.938,1.477,0.313,0.253c1.251-1.225,1.323-1.247,1.323-1.247
				c19.339-14.666,13.211-34.322,13.211-34.322"/>
		</g>
		<polyline fill="#F4E635" points="79.303,82.486 79.134,84.589 80.907,83.369 		"/>
	</g>
</g>
</svg>
