<?xml version="1.0" encoding="utf-8"?>
<!-- Generator: Adobe Illustrator 16.0.0, SVG Export Plug-In . SVG Version: 6.00 Build 0)  -->
<!DOCTYPE svg PUBLIC "-//W3C//DTD SVG 1.1//EN" "http://www.w3.org/Graphics/SVG/1.1/DTD/svg11.dtd">
<svg version="1.1" id="Layer_1" xmlns="http://www.w3.org/2000/svg" xmlns:xlink="http://www.w3.org/1999/xlink" x="0px" y="0px"
	 width="453.855px" height="360.296px" viewBox="0 0 453.855 360.296" enable-background="new 0 0 453.855 360.296"
	 xml:space="preserve">
<g>
	<path fill="#363636" stroke="#FFFFFF" stroke-miterlimit="10" d="M446.519,252.185c0,14.926-12.1,27.027-27.026,27.027H34.363
		c-14.926,0-27.027-12.102-27.027-27.027V34.363c0-14.926,12.101-27.027,27.027-27.027h385.13c14.927,0,27.026,12.101,27.026,27.027
		V252.185z"/>
	<path fill="#FFFF33" stroke="#FFFFFF" stroke-miterlimit="10" d="M34.363,261.426c-5.095,0-9.24-4.146-9.24-9.241V34.363
		c0-5.095,4.145-9.241,9.24-9.241h385.13c5.095,0,9.24,4.146,9.24,9.241v217.822c0,5.095-4.146,9.241-9.24,9.241H34.363z"/>
</g>
<g>
	<path fill="none" stroke="#000000" stroke-miterlimit="10" d="M419.493,12.672H34.363c-11.96,0-21.691,9.73-21.691,21.691v217.822
		c0,11.961,9.73,21.691,21.691,21.691h385.13c11.96,0,21.69-9.73,21.69-21.691V34.363C441.183,22.402,431.453,12.672,419.493,12.672
		z"/>
	<path fill="#FFFFFF" stroke="#363636" stroke-width="4" stroke-miterlimit="10" d="M419.493,2H34.363C16.518,2,2,16.519,2,34.363
		v217.822c0,17.846,14.518,32.363,32.363,32.363h138.591c-1.795,3.642-2.875,8.243-2.875,13.258v36.081
		c0,2.307,0.233,4.523,0.653,6.604h-15.305c-4.584,0-8.3,3.715-8.3,8.301c0,4.584,3.716,8.299,8.3,8.299h143.477
		c4.583,0,8.299-3.715,8.299-8.299c0-4.586-3.716-8.301-8.299-8.301h-15.223c0.42-2.081,0.653-4.298,0.653-6.604v-36.081
		c0-5.015-1.079-9.616-2.874-13.258h138.031c17.845,0,32.362-14.518,32.362-32.363V34.363C451.855,16.519,437.337,2,419.493,2z
		 M441.183,252.185c0,11.961-9.73,21.691-21.69,21.691H34.363c-11.96,0-21.691-9.73-21.691-21.691V34.363
		c0-11.96,9.73-21.691,21.691-21.691h385.13c11.96,0,21.69,9.73,21.69,21.691V252.185z"/>
</g>
<g>
	<path fill="#354050" d="M231.967,33.746c-59.77,0-108.222,48.453-108.222,108.223c0,12.767,2.227,25.009,6.286,36.381
		c0.18-0.187,0.363-0.365,0.549-0.542c-3.978-11.22-6.163-23.277-6.163-35.842c0-59.303,48.248-107.547,107.549-107.547
		c59.303,0,107.549,48.247,107.549,107.55c0,38.015-19.844,71.462-49.697,90.592c0.133,0.2,0.247,0.408,0.373,0.611
		c30.055-19.228,49.997-52.876,49.997-91.203C340.189,82.199,291.737,33.746,231.967,33.746z"/>
	<path fill="#354050" d="M339.516,141.969c0-59.303-48.246-107.55-107.549-107.55c-59.301,0-107.549,48.244-107.549,107.547
		c0,12.564,2.185,24.622,6.163,35.842c-0.186,0.177-0.369,0.355-0.549,0.542c3.358,9.407,7.99,18.203,13.673,26.203
		c1.233,1.735,2.511,3.438,3.843,5.096c19.834,24.707,50.27,40.541,84.419,40.541c8.291,0,16.354-0.965,24.111-2.729
		c3.168-0.721,6.285-1.571,9.341-2.565c8.809-2.86,17.116-6.824,24.772-11.723c-0.126-0.203-0.24-0.411-0.373-0.611
		C319.672,213.431,339.516,179.983,339.516,141.969z"/>
</g>
<g>
	<g>
		<path fill-rule="evenodd" clip-rule="evenodd" fill="#FFFFFF" stroke="#363636" stroke-width="4" stroke-miterlimit="10" d="
			M342.101,230.581c0.314,0.679,27.271,1.412,31.055,3.317c11.678,5.883,10.956,20.02,10.757,31.178
			c-0.299,16.889,0.698,33.758,0.721,50.646c0.016,10.882,2.079,27.249-6.864,35.501c-7.817,7.215-16.907,7.072-26.914,7.072
			c-34.007,0-68.571,0-102.736,0c-14.274,0-33.098-2.4-34.539-20.227c-2.171-26.828,0.035-54.8,0.035-81.736
			c0-27.3,20.459-25.327,42.486-25.751c3.604-5.21,6.184-11.157,9.011-16.736c0.397-0.784,20.891-4.378,35.534-4.378
			c13.34,0,33.475,4.635,33.475,4.635c2.295,2.45,2.947,5.805,4.12,8.24C339.545,225.059,340.836,227.416,342.101,230.581z
			 M293.436,252.211c-22.68,4.957-36.873,18.402-37.336,45.575c0.873,1.646,0.556,4.481,1.029,6.438
			c1.984,8.185,6.152,14.741,10.814,19.827c3.268,3.564,6.835,6.208,11.33,8.497c6.564,3.346,14.109,5.124,23.945,4.634
			c3.1-0.886,6.855-1.151,10.043-2.316c1.347-0.492,3.348-1.284,4.894-2.061c1.528-0.768,3.464-1.74,4.634-2.574
			c1.424-1.014,2.73-2.952,3.863-3.862c0.504-0.405,1.396-0.401,1.801-0.773c1.225-1.12,1.703-2.548,2.833-3.861
			c1.697-1.97,2.86-3.436,4.12-5.664c0.611-1.084,1.664-2.006,2.061-2.833c1.591-3.328,2.06-7.879,3.09-11.844
			c0.879-3.393,1.009-8.296,0.514-12.876C335.93,265.828,321.348,251.278,293.436,252.211z"/>
		<path fill-rule="evenodd" clip-rule="evenodd" fill="#363636" d="M341.071,288.517c0.495,4.58,0.365,9.483-0.514,12.876
			c-1.03,3.965-1.499,8.516-3.09,11.844c-0.396,0.827-1.449,1.749-2.061,2.833c-1.26,2.229-2.423,3.694-4.12,5.664
			c-1.13,1.313-1.608,2.741-2.833,3.861c-0.404,0.372-1.297,0.368-1.801,0.773c-1.133,0.91-2.439,2.849-3.863,3.862
			c-1.17,0.834-3.105,1.807-4.634,2.574c-1.546,0.776-3.547,1.568-4.894,2.061c-3.188,1.165-6.943,1.431-10.043,2.316
			c-9.836,0.49-17.381-1.288-23.945-4.634c-4.495-2.289-8.062-4.933-11.33-8.497c-4.662-5.086-8.83-11.643-10.814-19.827
			c-0.474-1.956-0.156-4.792-1.029-6.438c0.463-27.173,14.656-40.618,37.336-45.575C321.348,251.278,335.93,265.828,341.071,288.517
			z M292.149,266.888c-4.74,1.088-8.003,3.738-12.104,5.923c-5.938,6.199-11.107,14.419-9.269,27.552
			c3.092,10.449,8.69,17.267,17.766,20.855c2.702,1.07,5.322,0.868,8.24,1.546c0.783,0.183,1.808,0.714,3.09,0.514
			c15.888-2.47,28.112-12.201,27.294-31.928c-0.721-2.282-1.136-4.871-1.803-7.21C320.73,273.646,308.545,263.129,292.149,266.888z"
			/>
		<path fill-rule="evenodd" clip-rule="evenodd" fill="#FFFFFF" stroke="#363636" stroke-width="4" stroke-miterlimit="10" d="
			M325.364,284.14c0.667,2.339,1.082,4.928,1.803,7.21c0.818,19.727-11.406,29.458-27.294,31.928c-1.282,0.2-2.307-0.331-3.09-0.514
			c-2.918-0.678-5.538-0.476-8.24-1.546c-9.075-3.589-14.674-10.406-17.766-20.855c-1.839-13.133,3.331-21.353,9.269-27.552
			c4.101-2.185,7.363-4.835,12.104-5.923C308.545,263.129,320.73,273.646,325.364,284.14z"/>
	</g>
</g>
<path fill="#FFFFFF" d="M291.736,124.672c1.526,0,2.767,1.242,2.767,2.767v65.229c0,1.524-1.24,2.767-2.767,2.767H176.405
	c-1.526,0-2.767-1.242-2.767-2.767v-65.229c0-1.525,1.241-2.767,2.767-2.767H291.736 M291.736,115.779H176.405
	c-6.43,0-11.66,5.23-11.66,11.66v65.229c0,6.43,5.23,11.66,11.66,11.66h115.331c6.429,0,11.66-5.23,11.66-11.66v-65.229
	C303.396,121.009,298.165,115.779,291.736,115.779L291.736,115.779z"/>
<g>
	<path fill="#FFFFFF" d="M285.245,77.154c1.304,0,2.468,0.928,2.718,2.253l2.599,13.75l-118.763,22.445l-2.599-13.75
		c-0.283-1.497,0.706-2.949,2.205-3.232L284.73,77.203C284.903,77.17,285.075,77.154,285.245,77.154 M285.245,68.261
		c-0.725,0-1.453,0.069-2.166,0.204L169.753,89.881c-3.059,0.578-5.711,2.314-7.466,4.89c-1.755,2.574-2.404,5.675-1.825,8.733
		l2.598,13.75l1.652,8.739l8.739-1.652l118.762-22.445l8.737-1.652l-1.65-8.739l-2.599-13.75
		C295.662,72.254,290.843,68.261,285.245,68.261L285.245,68.261z"/>
</g>
<polyline fill="#FFFFFF" stroke="#FFFFFF" stroke-width="3" stroke-linecap="round" stroke-linejoin="round" stroke-miterlimit="10" points="
	226.202,144.204 226.202,176.338 246.434,159.676 226.202,144.204 "/>
</svg>
